<svg aria-hidden="true" style="position: absolute; width: 0; height: 0; overflow: hidden;" version="1.1" xmlns="http://www.w3.org/2000/svg" xmlns:xlink="http://www.w3.org/1999/xlink">
<defs>
<symbol id="icon-search" viewBox="0 0 18 18">
<title>search</title>
<path d="M17.317 14.983c0.298 0.298 0.483 0.711 0.483 1.167 0 0.911-0.739 1.65-1.65 1.65-0.456 0-0.868-0.185-1.167-0.484v0l-4.836-4.835c-0.982 0.58-2.124 0.919-3.347 0.919-3.645 0-6.6-2.955-6.6-6.6s2.955-6.6 6.6-6.6c3.645 0 6.6 2.955 6.6 6.6 0 1.223-0.339 2.365-0.919 3.347l4.836 4.836zM6.8 1.849c-2.734 0-4.95 2.217-4.95 4.951s2.216 4.95 4.95 4.95c2.734 0 4.95-2.216 4.95-4.95s-2.216-4.951-4.95-4.951z"></path>
</symbol>
<symbol id="icon-shoping" viewBox="0 0 22 18">
<title>shoping</title>
<path d="M21.271 4.396h0.001l-2.97 6.6c-0.146 0.325-0.463 0.557-0.836 0.582v0l-8.554 0.57 0.494 1.411h9.313c1.093 0 1.98 0.887 1.98 1.981 0 1.093-0.887 1.98-1.98 1.98s-1.98-0.887-1.98-1.98h-9.24c0 1.093-0.887 1.98-1.98 1.98s-1.98-0.887-1.98-1.98c0-1.094 0.887-1.981 1.98-1.981h1.789l-3.811-10.889h-2.268c-0.547 0-0.99-0.444-0.99-0.99 0-0.547 0.443-0.99 0.99-0.99h2.97c0.432 0 0.796 0.278 0.931 0.664l0.004-0.001 0.576 1.648h14.659c0.547 0 0.99 0.443 0.99 0.99 0 0.144-0.032 0.281-0.089 0.406zM6.404 4.98l1.83 5.228 8.507-0.568 2.098-4.661h-12.434z"></path>
</symbol>
</defs>
</svg>
